<svg width="12" height="59" viewBox="0 0 12 59" fill="none" xmlns="http://www.w3.org/2000/svg">
<path fill-rule="evenodd" clip-rule="evenodd" d="M5.13227 55.8876H5.05767L5.89613 56.9797H6.10221L6.94068 55.8876H6.86485C6.69197 56.1865 6.36875 56.3877 5.99856 56.3877C5.62837 56.3877 5.30515 56.1865 5.13227 55.8876ZM6.99856 54.8876H7.95492H8.96915L8.35151 55.6921L6.39577 58.2394L5.99917 58.756L5.60258 58.2394L3.64683 55.6921L3.02919 54.8876H4.04343H4.99856L4.99856 50.7632L0.261886 52.0485L0 51.0834L0.232854 51.0202L0.25072 51.0117C0.384188 50.9483 0.574912 50.8574 0.803802 50.7478C1.26168 50.5283 1.87185 50.2338 2.48174 49.9329C3.0923 49.6317 3.69992 49.3255 4.1538 49.0824C4.38155 48.9604 4.56577 48.8569 4.69111 48.7792C4.74708 48.7445 4.7855 48.7185 4.80908 48.7008C4.85129 48.6371 4.91986 48.5887 4.99856 48.5728L4.99856 46.3052L0.261886 47.5905L0 46.6254L0.232854 46.5622L0.25072 46.5537C0.384188 46.4903 0.574912 46.3994 0.803802 46.2898C1.26168 46.0703 1.87185 45.7758 2.48174 45.4749C3.0923 45.1737 3.69992 44.8675 4.1538 44.6244C4.38155 44.5024 4.56577 44.3989 4.69111 44.3212C4.74708 44.2865 4.7855 44.2604 4.80908 44.2427C4.85129 44.1791 4.91986 44.1307 4.99856 44.1148L4.99856 0.619019H6.99856L6.99856 44.7263L11.7345 43.4412L11.9963 44.4063L11.0239 44.6701C11.0119 44.6787 10.9991 44.6866 10.9856 44.6935L6.99856 46.7447V49.1843L11.7345 47.8992L11.9963 48.8643L11.1147 49.1035C11.088 49.1557 11.0436 49.2018 10.9856 49.2316L6.99856 51.2827L6.99856 54.8876ZM8.88143 45.2515L6.99856 46.2202V45.7624L8.88143 45.2515ZM2.67745 45.8988L4.99856 45.269V44.6768C4.97628 44.6914 4.95296 44.7062 4.92895 44.7211C4.78684 44.8093 4.58899 44.9201 4.35826 45.0436C3.89752 45.2904 3.28641 45.5984 2.67745 45.8988ZM4.99856 49.727L2.67745 50.3568C3.28641 50.0564 3.89752 49.7484 4.35826 49.5016C4.58899 49.3781 4.78684 49.2673 4.92895 49.1791C4.95296 49.1642 4.97628 49.1494 4.99856 49.1348V49.727ZM6.99856 50.7582L9.21084 49.6201L6.99856 50.2204V50.7582Z" fill="#EE1C29"/>
</svg>
