<svg width="12" height="59" viewBox="0 0 12 59" fill="none" xmlns="http://www.w3.org/2000/svg">
<path fill-rule="evenodd" clip-rule="evenodd" d="M5.13214 55.2686H5.05767L5.89613 56.3607H6.10221L6.94068 55.2686H6.86473C6.69184 55.5675 6.36863 55.7687 5.99844 55.7687C5.62824 55.7687 5.30503 55.5675 5.13214 55.2686ZM6.99844 54.2686H7.95492H8.96915L8.35151 55.073L6.39577 57.6204L5.99917 58.137L5.60258 57.6204L3.64683 55.073L3.02919 54.2686H4.04343H4.99844L4.99844 50.1442L0.261886 51.4295L0 50.4644L0.233141 50.4011L0.250843 50.3927C0.384311 50.3293 0.575035 50.2384 0.803925 50.1287C1.2618 49.9093 1.87197 49.6148 2.48186 49.3139C3.09242 49.0127 3.70005 48.7065 4.15392 48.4634C4.38167 48.3414 4.56589 48.2379 4.69123 48.1602C4.7472 48.1254 4.78562 48.0994 4.8092 48.0817C4.85137 48.0181 4.91984 47.9698 4.99844 47.9539L4.99844 45.6862L0.261886 46.9715L0 46.0064L0.233142 45.9431L0.250843 45.9347C0.384311 45.8713 0.575035 45.7804 0.803925 45.6707C1.2618 45.4513 1.87197 45.1568 2.48186 44.8559C3.09242 44.5547 3.70005 44.2485 4.15392 44.0054C4.38167 43.8834 4.56589 43.7799 4.69123 43.7021C4.7472 43.6674 4.78562 43.6414 4.8092 43.6237C4.85137 43.5601 4.91984 43.5118 4.99844 43.4959L4.99844 0H6.99844L6.99844 44.1073L11.7345 42.8221L11.9963 43.7872L11.0239 44.0511C11.0119 44.0597 10.9991 44.0675 10.9856 44.0745L6.99844 46.1257V48.5653L11.7345 47.2801L11.9963 48.2452L11.1147 48.4845C11.088 48.5367 11.0436 48.5828 10.9856 48.6126L6.99844 50.6638L6.99844 54.2686ZM8.88143 44.6325L6.99844 45.6012V45.1435L8.88143 44.6325ZM2.67772 45.2797L4.99844 44.65V44.058C4.97624 44.0725 4.953 44.0873 4.92907 44.1021C4.78696 44.1902 4.58911 44.301 4.35839 44.4246C3.89768 44.6714 3.28664 44.9793 2.67772 45.2797ZM4.99844 49.108L2.67772 49.7378C3.28663 49.4373 3.89768 49.1294 4.35839 48.8826C4.58911 48.759 4.78696 48.6483 4.92907 48.5601C4.953 48.5453 4.97624 48.5305 4.99844 48.516V49.108ZM6.99844 50.1393L9.21084 49.0011L6.99844 49.6015V50.1393Z" fill="#EE1C29"/>
</svg>
